<svg width="20" height="20" viewBox="0 0 20 20" fill="none" xmlns="http://www.w3.org/2000/svg">
<path d="M14.6499 8.0918C14.2304 7.97762 13.789 7.91667 13.3334 7.91667C11.2224 7.91667 9.41685 9.22492 8.68352 11.0748M14.6499 8.0918C16.7726 8.66967 18.3334 10.6109 18.3334 12.9167C18.3334 15.6781 16.0948 17.9167 13.3334 17.9167C12.0528 17.9167 10.8846 17.4353 10 16.6435M14.6499 8.0918C14.8759 7.52182 15 6.90042 15 6.25C15 3.48858 12.7614 1.25 10 1.25C7.2386 1.25 5.00002 3.48858 5.00002 6.25C5.00002 6.90042 5.12421 7.52182 5.35017 8.0918M8.68352 11.0748C8.45752 11.6448 8.33335 12.2663 8.33335 12.9167C8.33335 14.3975 8.9771 15.728 10 16.6435M8.68352 11.0748C7.15957 10.66 5.92526 9.5425 5.35017 8.0918M10 16.6435C9.11544 17.4353 7.94728 17.9167 6.66669 17.9167C3.90526 17.9167 1.66669 15.6781 1.66669 12.9167C1.66669 10.6109 3.22747 8.66967 5.35017 8.0918" stroke="black" stroke-width="2" stroke-linecap="round"/>
</svg>
