<svg width="22" height="22" viewBox="0 0 22 22" fill="none" xmlns="http://www.w3.org/2000/svg">
<g clip-path="url(#clip0_57_329)">
<path d="M4.12501 8.70834H3.66668C2.80243 8.70834 2.37032 8.70834 2.10183 8.97683C1.83334 9.24533 1.83334 9.67744 1.83334 10.5417V18.3333C1.83334 19.1976 1.83334 19.6297 2.10183 19.8982C2.37032 20.1667 2.80243 20.1667 3.66668 20.1667H4.12501C4.98925 20.1667 5.42137 20.1667 5.68986 19.8982C5.95834 19.6297 5.95834 19.1976 5.95834 18.3333V10.5417C5.95834 9.67744 5.95834 9.24533 5.68986 8.97683C5.42137 8.70834 4.98925 8.70834 4.12501 8.70834Z" stroke="black" stroke-width="2"/>
<path d="M5.95834 3.89584C5.95834 5.03493 5.03493 5.95834 3.89584 5.95834C2.75676 5.95834 1.83334 5.03493 1.83334 3.89584C1.83334 2.75676 2.75676 1.83334 3.89584 1.83334C5.03493 1.83334 5.95834 2.75676 5.95834 3.89584Z" stroke="black" stroke-width="2"/>
<path d="M11.2988 8.70834H10.5417C9.67744 8.70834 9.24533 8.70834 8.97683 8.97683C8.70834 9.24533 8.70834 9.67744 8.70834 10.5417V18.3333C8.70834 19.1976 8.70834 19.6297 8.97683 19.8982C9.24533 20.1667 9.67744 20.1667 10.5417 20.1667H11C11.8642 20.1667 12.2964 20.1667 12.5649 19.8982C12.8333 19.6297 12.8333 19.1976 12.8333 18.3333L12.8334 15.1251C12.8334 13.6064 13.3174 12.3751 14.7473 12.3751C15.4621 12.3751 16.0417 12.9907 16.0417 13.7501V17.8751C16.0417 18.7393 16.0417 19.1715 16.3102 19.4399C16.5786 19.7084 17.0108 19.7084 17.875 19.7084H18.3322C19.1962 19.7084 19.6282 19.7084 19.8967 19.44C20.1652 19.1716 20.1653 18.7396 20.1655 17.8756L20.1668 12.8335C20.1668 10.5554 18 8.70856 15.8554 8.70856C14.6345 8.70856 13.5453 9.30702 12.8334 10.2428C12.8333 9.66525 12.8333 9.3765 12.7079 9.16209C12.6285 9.0263 12.5154 8.91325 12.3796 8.83381C12.1652 8.70834 11.8764 8.70834 11.2988 8.70834Z" stroke="black" stroke-width="2" stroke-linejoin="round"/>
</g>
<defs>
<clipPath id="clip0_57_329">
<rect width="22" height="22" fill="white"/>
</clipPath>
</defs>
</svg>
