<svg width="38" height="38" viewBox="0 0 38 38" fill="none" xmlns="http://www.w3.org/2000/svg">
<path d="M25.3335 26.125L31.6667 32.4583" stroke="black" stroke-width="3" stroke-linecap="round" stroke-linejoin="round"/>
<path d="M28.4999 18.2083C28.4999 24.3295 23.5378 29.2916 17.4166 29.2916C11.2954 29.2916 6.33325 24.3295 6.33325 18.2083C6.33325 12.0872 11.2954 7.125 17.4166 7.125" stroke="black" stroke-width="3" stroke-linecap="round" stroke-linejoin="round"/>
<path d="M24.5417 5.54175L24.95 6.64538C25.4855 8.09253 25.7532 8.81611 26.2811 9.34395C26.809 9.8718 27.5326 10.1395 28.9797 10.675L30.0833 11.0834L28.9797 11.4918C27.5326 12.0273 26.809 12.295 26.2811 12.8229C25.7532 13.3507 25.4855 14.0743 24.95 15.5215L24.5417 16.625L24.1333 15.5215C23.5978 14.0743 23.3301 13.3507 22.8022 12.8229C22.2743 12.295 21.5507 12.0273 20.1036 11.4918L19 11.0834L20.1036 10.675C21.5507 10.1395 22.2743 9.8718 22.8022 9.34395C23.3301 8.81611 23.5978 8.09253 24.1333 6.64538L24.5417 5.54175Z" stroke="black" stroke-width="2" stroke-linecap="round" stroke-linejoin="round"/>
</svg>
